<?xml version="1.0" encoding="utf-8"?>
<!-- Generator: Adobe Illustrator 19.1.0, SVG Export Plug-In . SVG Version: 6.00 Build 0)  -->
<svg version="1.1" id="Laag_1" xmlns="http://www.w3.org/2000/svg" xmlns:xlink="http://www.w3.org/1999/xlink" x="0px" y="0px"
	 viewBox="0 0 461 120" style="enable-background:new 0 0 461 120;" xml:space="preserve">
<style type="text/css">
	.st0{fill:#010202;}
	.st1{fill:#FAFAFB;stroke:#FAFAFB;stroke-width:7.8605;stroke-miterlimit:10;}
</style>
<path d="M133.4,15.2h6.6l-0.3,35.5h-6.6L133.4,15.2z"/>
<path d="M154.7,20.8h-9.9l0.1-5.6h26.3l-0.1,5.6h-9.8L161,50.7h-6.6L154.7,20.8z"/>
<path d="M176.4,15.2h10c9.3,0,13,4.2,13,10.8c0,7.3-6,10.8-12.9,10.8h-3.6l-0.1,13.9h-6.7L176.4,15.2z M186.3,31.5
	c3.5,0,6.3-2.2,6.3-5.5c0-2.2-1.2-5.4-6-5.4h-3.5L183,31.5H186.3z"/>
<path d="M204.9,15.2h6.6l-0.1,14.5H227l0.1-14.5h6.7l-0.3,35.5h-6.7l0.2-15.4h-15.6l-0.2,15.4h-6.6L204.9,15.2z"/>
<path d="M259,51.4l-6.1-1.8l13.6-34.3h6l12.7,34.3l-6.4,1.8l-3.5-10.1H263L259,51.4z M269.4,22.1h-0.1l-4.5,13.8h8.7L269.4,22.1z"/>
<path d="M308.9,46.5c-2.5,3.1-5.5,4.9-9.6,4.9c-7.4,0-11.2-7-11.2-13.2c0-7.1,4.5-14,12.1-14c3.8,0,6.7,1.8,9,4.4l-3.5,3.4
	c-1.6-1.3-3-2.5-5.2-2.5c-3.9,0-5.8,4.2-5.8,8.1c0,5.4,2.4,8.5,5.5,8.5c2.3,0,3.8-1.4,5.3-2.9L308.9,46.5z"/>
<path d="M311.7,29.3c5.6-4.6,8.5-5.2,11.3-5.2c3.8,0,7.4,2.4,7.4,7.4c0,0.9,0,1.5,0,2.2l-0.2,7.4c-0.1,1.2-0.1,2.2-0.1,3.2
	c0,1.4,0.7,2.5,1.4,2.5c0.3,0,0.8-0.2,1.8-0.7l1.5,3.1c-2.7,1.8-4.2,2.1-5.4,2.1c-2.2,0-4-1.3-4.5-3.4c-1.8,2.2-4.2,3.4-6.6,3.4
	c-4.6,0-7.7-2.9-7.7-7.5c0-4.2,2.7-7.7,13.8-9.6v-1.7c0-2.9-1.2-3.4-3-3.4c-1.3,0-2.8,0.5-6.7,3.5L311.7,29.3z M324.3,38.3
	c-5.9,1.3-7.8,2.8-7.8,5.4c0,1.9,1.3,3,3.3,3c1.3,0,3-0.8,4.5-2.4V38.3z"/>
<path d="M353.7,47.9h-0.1c-1.3,1.9-3.8,3.4-6.4,3.4c-6.3,0-10.8-5.5-10.8-13.2c0-7,4-13.9,11.2-13.9c2,0,4.3,0.6,5.7,2.5h0.1
	l0.2-14.5h6.3l-0.2,38.4h-6L353.7,47.9L353.7,47.9z M353.4,31.9c-0.8-1.1-2.2-2.4-4.4-2.4c-3.4,0-6.4,3.2-6.4,8.3
	c0,4.8,2.6,8.1,6.2,8.1c1.9,0,4.2-1.8,4.5-4L353.4,31.9L353.4,31.9z"/>
<path d="M371.2,38.5c0.1,3.5,1.6,7.8,5.9,7.8c2.5,0,4.4-1.6,6-3.3l3.6,3.3c-2.7,3-6.3,5.1-10.5,5.1c-6.6,0-11.3-5.4-11.3-13.5
	c0-6.9,4.3-13.7,11.8-13.7c7.3,0,10.7,5.4,10.7,14.4L371.2,38.5L371.2,38.5z M381.4,34.1c-0.2-2.8-1.4-5.6-4.7-5.6
	c-2.8,0-5,3-5.2,5.6H381.4z"/>
<path d="M392.2,24.8h6.2v3.4l0.1,0.1c1.6-2.5,4.5-4.3,7.7-4.3c3,0,5.5,1.4,6.3,4.4c1.9-2.7,5.2-4.4,8.5-4.4c5.8,0,7,4.2,7,7.4
	c0,6.4-0.1,12.8-0.1,19.1h-6.3l0.1-10.1c0-2.7,0-6.2,0-7.6c0-1.9-1.2-3.2-3.1-3.2c-1.8,0-4.3,2.1-5.3,3.4l-0.2,17.5h-6.2l0.1-10.1
	c0-2.7,0-6.2,0-7.6c0-1.9-1.2-3.2-3.1-3.2c-1.8,0-4.3,2.1-5.3,3.4l-0.2,17.5h-6.2V24.8z"/>
<path d="M432.4,58.1h0.9c1,0,3.8-0.1,5.4-3.4l1.8-3.9L431.8,26l6.3-1.8l5.6,18.8h0.1l6.7-18.8l5.9,1.8l-11.2,28
	c-2.4,6-5,9.2-11.7,9.2h-1.2v-5.1H432.4z"/>
<path class="st0" d="M177.1,76.1c0.7,0.5,1.8,1,2.6,1c1.5,0,2.3-1,2.3-2.1c0-2.9-6-1.7-6-6.7c0-2.4,1.9-4.2,4.9-4.2
	c1.5,0,2.9,0.5,4.1,1.2l-1.1,1.9c-0.9-0.5-1.7-1-2.8-1c-1.2,0-2.4,0.7-2.4,2c0,2.9,6.1,2,6.1,6.6c0,2.5-2,4.4-4.8,4.4
	c-1.4,0-2.7-0.4-4-1.1L177.1,76.1z"/>
<path class="st0" d="M187.3,63.1h2.6l-0.1,10.2l0,0l4.5-5.6l1.8,1.5l-3.7,4.2l3.7,4.8l-2.1,1.5l-4.2-5.9l0,0V79h-2.6L187.3,63.1z"/>
<path class="st0" d="M198.1,68.3h2.6L200.6,79H198L198.1,68.3z M198.1,64.4h2.6v2.5h-2.6V64.4z"/>
<path class="st0" d="M204,63.1h2.6L206.4,79h-2.6L204,63.1z"/>
<path class="st0" d="M209.8,63.1h2.6L212.3,79h-2.6L209.8,63.1z"/>
<path class="st0" d="M215.8,76.4c0.8,0.5,1.7,0.9,2.7,0.9c0.8,0,1.5-0.4,1.5-1.2c0-2.1-5-0.5-5-4.8c0-2.2,1.9-3.3,3.9-3.3
	c1.2,0,2.7,0.4,3.6,1.2l-1.1,1.6c-0.6-0.5-1.6-0.8-2.3-0.8s-1.6,0.4-1.6,1.3c0,2,5.1,0.8,5.1,4.6c0,2.3-1.9,3.4-4,3.4
	c-1.3,0-2.6-0.4-3.7-1L215.8,76.4z"/>
<path class="st0" d="M231.4,70.3h-1.7v-1.9h1.7V67c0-2.3,1.4-4,4-4h0.8v2h-0.6c-1,0-1.6,0.5-1.6,1.8v1.5h2.2v1.9H234V79h-2.6V70.3z"
	/>
<path class="st0" d="M242.2,68c3.4,0,5.1,2.5,5.1,5.6c0,3-1.9,5.6-5.1,5.6c-3.5,0-5.1-2.6-5.1-5.6C237.1,70.8,239,68,242.2,68z
	 M242.2,77.2c1.9,0,2.5-2,2.5-3.5c0-2.2-0.8-3.6-2.5-3.6c-1.9,0-2.5,2.2-2.5,3.6C239.6,75,240.2,77.2,242.2,77.2z"/>
<path class="st0" d="M249.5,68.3h2.6v1.9l0,0c0.5-1.2,1.2-2.2,2.5-2.3c0.3,0,0.5,0,0.8,0.1l-0.4,2.5c-0.2,0-0.4-0.1-0.6-0.1
	c-1,0-1.7,0.7-2.2,1.9L252,79h-2.6L249.5,68.3z"/>
<path class="st0" d="M261.4,82h0.4c0.4,0,1.6,0,2.2-1.4l0.8-1.6l-3.6-10.2l2.6-0.7l2.3,7.7l0,0l2.8-7.7l2.5,0.7l-4.6,11.5
	c-1,2.5-2.1,3.8-4.8,3.8h-0.5L261.4,82L261.4,82z"/>
<path class="st0" d="M277.4,68c3.4,0,5.1,2.5,5.1,5.6c0,3-1.9,5.6-5.1,5.6c-3.5,0-5.1-2.6-5.1-5.6C272.3,70.8,274.3,68,277.4,68z
	 M277.4,77.2c1.9,0,2.5-2,2.5-3.5c0-2.2-0.8-3.6-2.5-3.6c-1.9,0-2.5,2.2-2.5,3.6C274.9,75,275.5,77.2,277.4,77.2z"/>
<path class="st0" d="M293.6,79H291v-1.3l0,0c-0.8,0.9-2,1.6-3.3,1.6c-2.3,0-3-1.5-3-3.6c0-0.7,0-1.3,0-2l0.1-5.3h2.6v2.7
	c0,1.5,0,3,0,4.2s0.3,1.8,1.4,1.8c0.8,0,1.7-0.8,2.3-1.4v-7.2h2.6L293.6,79z"/>
<path class="st0" d="M296.5,68.3h2.6v1.9l0,0c0.5-1.2,1.2-2.2,2.5-2.3c0.3,0,0.5,0,0.8,0.1l-0.4,2.5c-0.2,0-0.4-0.1-0.6-0.1
	c-1,0-1.7,0.7-2.2,1.9L299,79h-2.6L296.5,68.3z"/>
<path class="st0" d="M315.8,77.8L315.8,77.8c-0.6,0.8-1.6,1.4-2.7,1.4c-2.6,0-4.5-2.3-4.5-5.4c0-2.9,1.6-5.7,4.6-5.7
	c0.8,0,1.8,0.3,2.4,1l0,0l0.1-6h2.6V79h-2.5V77.8z M315.7,71.2c-0.3-0.4-0.9-1-1.8-1c-1.4,0-2.6,1.3-2.6,3.4c0,2,1.1,3.4,2.6,3.4
	c0.8,0,1.7-0.8,1.9-1.7v-4.1H315.7z"/>
<path class="st0" d="M321.4,68.3h2.6L323.8,79h-2.6L321.4,68.3z M321.4,64.4h2.6v2.5h-2.6V64.4z"/>
<path class="st0" d="M335.1,70c0.4,0.4,0.6,1,0.6,1.6c0,2.2-1.9,3.4-3.9,3.4c-0.9,0-1.5-0.1-1.9-0.3c-0.4,0.3-0.9,0.6-0.9,1
	c0,0.5,0.7,0.5,3,0.8c2.4,0.2,4.9,0.5,4.9,3.2c0,2.9-3.1,4.4-5.8,4.4c-3.4,0-4.8-1.6-4.8-3.1s1.2-2.2,2.3-2.8l0,0
	c-1-0.2-2.3-0.4-2.3-1.5c0-0.9,0.7-1.4,2.5-2.5c-1-0.5-1.5-1.5-1.5-2.5c0-2.3,1.9-3.6,4.1-3.6c1.2,0,1.7,0.2,2.4,0.5l3.4-0.1v1.6
	L335.1,70z M331.2,82.4c1.8,0,3.1-1.1,3.1-2.2s-0.4-1.2-4.1-1.7c-0.8,0.5-1.9,1.1-1.9,2.1C328.4,82,330.1,82.4,331.2,82.4z
	 M329.7,71.6c0,0.9,0.6,1.8,1.8,1.8c1.2,0,1.7-0.8,1.7-1.9c0-1-0.6-1.9-1.7-1.9C330.4,69.7,329.7,70.5,329.7,71.6z"/>
<path class="st0" d="M339,68.3h2.6L341.5,79h-2.6L339,68.3z M339,64.4h2.6v2.5H339V64.4z"/>
<path class="st0" d="M350.4,78.4l-0.9,0.5c-0.7,0.4-1.3,0.4-1.6,0.4c-1.8,0-2.9-0.9-2.9-3.2c0-0.5,0-1.6,0-2.6l0.1-3.3h-1.4v-1.9
	h1.4l0.1-3.8h2.6l-0.1,3.8h2.4v1.9h-2.4l-0.1,3.1c0,1.1,0,2,0,2.8c0,0.7,0.2,1.1,0.9,1.1c0.4,0,0.8-0.3,1.2-0.5L350.4,78.4z"/>
<path class="st0" d="M351.3,70.2c2.3-1.9,3.5-2.2,4.6-2.2c1.6,0,3,1,3,3.1c0,0.4,0,0.6,0,0.9l-0.1,3.1c0,0.5,0,0.9,0,1.3
	c0,0.6,0.3,1,0.6,1c0.1,0,0.3-0.1,0.8-0.3l0.6,1.3c-1.1,0.7-1.7,0.9-2.2,0.9c-0.9,0-1.6-0.5-1.8-1.4c-0.8,0.9-1.7,1.4-2.7,1.4
	c-1.9,0-3.2-1.2-3.2-3.1c0-1.7,1.1-3.2,5.7-4v-0.7c0-1.2-0.5-1.4-1.2-1.4c-0.5,0-1.2,0.2-2.8,1.5L351.3,70.2z M356.5,73.9
	c-2.5,0.5-3.2,1.1-3.2,2.2c0,0.8,0.5,1.2,1.4,1.2c0.5,0,1.2-0.3,1.8-1L356.5,73.9z"/>
<path class="st0" d="M362.5,63.1h2.6L364.9,79h-2.6L362.5,63.1z"/>
<path class="st0" d="M374.7,70.3H373v-1.9h1.7V67c0-2.3,1.4-4,4-4h0.8v2h-0.6c-1,0-1.6,0.5-1.6,1.8v1.5h2.2v1.9h-2.3V79h-2.6
	L374.7,70.3z"/>
<path class="st0" d="M389.9,79h-2.6v-1.3l0,0c-0.8,0.9-2,1.6-3.3,1.6c-2.3,0-3-1.5-3-3.6c0-0.7,0-1.3,0-2l0.1-5.3h2.6v2.7
	c0,1.5,0,3,0,4.2s0.3,1.8,1.4,1.8c0.8,0,1.7-0.8,2.3-1.4v-7.2h2.6L389.9,79z"/>
<path class="st0" d="M398.5,78.4l-0.9,0.5c-0.7,0.4-1.3,0.4-1.6,0.4c-1.8,0-2.9-0.9-2.9-3.2c0-0.5,0-1.6,0-2.6l0.1-3.3h-1.4v-1.9
	h1.4l0.1-3.8h2.6l-0.1,3.8h2.4v1.9h-2.4l-0.1,3.1c0,1.1,0,2,0,2.8c0,0.7,0.2,1.1,0.9,1.1c0.4,0,0.8-0.3,1.2-0.5L398.5,78.4z"/>
<path class="st0" d="M408.6,79H406v-1.3l0,0c-0.8,0.9-2,1.6-3.3,1.6c-2.3,0-3-1.5-3-3.6c0-0.7,0-1.3,0-2l0.1-5.3h2.6v2.7
	c0,1.5,0,3,0,4.2s0.3,1.8,1.4,1.8c0.8,0,1.7-0.8,2.3-1.4v-7.2h2.6L408.6,79z"/>
<path class="st0" d="M411.6,68.3h2.6v1.9l0,0c0.5-1.2,1.2-2.2,2.5-2.3c0.3,0,0.5,0,0.8,0.1l-0.4,2.5c-0.2,0-0.4-0.1-0.6-0.1
	c-1,0-1.7,0.7-2.2,1.9l-0.1,6.6h-2.6L411.6,68.3z"/>
<path class="st0" d="M420.5,74c0,1.5,0.7,3.2,2.5,3.2c1,0,1.8-0.7,2.5-1.4l1.5,1.4c-1.1,1.2-2.6,2.1-4.3,2.1c-2.7,0-4.6-2.2-4.6-5.6
	c0-2.8,1.8-5.7,4.9-5.7c3,0,4.4,2.2,4.4,5.9L420.5,74L420.5,74z M424.7,72.2c-0.1-1.1-0.6-2.3-1.9-2.3c-1.2,0-2.1,1.2-2.2,2.3H424.7
	z"/>
<path class="st1" d="M91.1,99.5"/>
<path class="st1" d="M68.2,99.5"/>
<path class="st1" d="M79.7,88.1"/>
<polygon class="st0" points="63.7,34.6 40.6,21.6 12.6,37.4 40.6,53.3 63.7,40.2 40.6,40.2 40.6,34.6 "/>
<path class="st0" d="M23.9,50.2V66c0,0.5,0.1,0.9,0.2,1.4c0.6,2.6,2.8,4.7,5,6c3.4,2.1,7.5,3,11.5,3c3.9,0,8.1-0.9,11.5-3
	c2.2-1.3,4.4-3.4,5-6c0.1-0.5,0.2-0.9,0.2-1.4V50.2l-16.7,9.4L23.9,50.2z"/>
<path class="st0" d="M60.5,0.8C37.1,0.8,16.9,14.4,7.3,34l33.3-18.8l39.3,22.2v20.4h-5.6V40.6l-11.5,6.5V66c0,8.8-10,16-22.2,16
	s-22.2-7.2-22.2-16V47.1L4.9,39.5C2.6,45.9,1.3,52.8,1.3,60c0,32.7,26.5,59.2,59.2,59.2s59.2-26.5,59.2-59.2S93.2,0.8,60.5,0.8z
	 M80.2,94.5h-5.6V87h5.6V94.5z M86.9,75.9h-6.7v6.7h-5.6v-6.7H68v-5.6h6.7v-6.7h5.6v6.7H87L86.9,75.9L86.9,75.9z M100.5,84.8
	l-3.9-3.9l5.1-5.1H91.6L88.8,73l2.8-2.8h10.1l-5.1-5.1l3.9-3.9L112.3,73L100.5,84.8z"/>
</svg>
